<?xml version="1.0" encoding="utf-8"?><!-- Uploaded to: SVG Repo, www.svgrepo.com, Generator: SVG Repo Mixer Tools -->
<svg width="800px" height="800px" viewBox="0 0 24 24" fill="none" xmlns="http://www.w3.org/2000/svg">
<path fill-rule="evenodd" clip-rule="evenodd" d="M8.7516 6.75V17.25H13.2464C14.602 17.1894 15.6545 16.0156 15.6 14.625C15.6545 13.234 14.6014 12.0601 13.2454 12H11.5333C12.8893 11.9399 13.9424 10.766 13.8879 9.375C13.9424 7.98403 12.8893 6.81005 11.5333 6.75L8.7516 6.75Z" stroke="#000000" stroke-width="1.5" stroke-linecap="round" stroke-linejoin="round"/>
<path d="M8.0016 19C8.0016 19.4142 8.33739 19.75 8.7516 19.75C9.16581 19.75 9.5016 19.4142 9.5016 19H8.0016ZM8.7516 17.25H9.5016C9.5016 16.8358 9.16581 16.5 8.7516 16.5V17.25ZM6.825 16.5C6.41079 16.5 6.075 16.8358 6.075 17.25C6.075 17.6642 6.41079 18 6.825 18V16.5ZM9.5016 5C9.5016 4.58579 9.16581 4.25 8.7516 4.25C8.33739 4.25 8.0016 4.58579 8.0016 5H9.5016ZM8.7516 6.75V7.5C9.16581 7.5 9.5016 7.16421 9.5016 6.75H8.7516ZM6.825 6C6.41079 6 6.075 6.33579 6.075 6.75C6.075 7.16421 6.41079 7.5 6.825 7.5V6ZM11.5333 12.75C11.9475 12.75 12.2833 12.4142 12.2833 12C12.2833 11.5858 11.9475 11.25 11.5333 11.25V12.75ZM8.7516 11.25C8.33739 11.25 8.0016 11.5858 8.0016 12C8.0016 12.4142 8.33739 12.75 8.7516 12.75V11.25ZM10.5697 6.75C10.5697 7.16421 10.9055 7.5 11.3197 7.5C11.734 7.5 12.0697 7.16421 12.0697 6.75H10.5697ZM12.0697 5C12.0697 4.58579 11.734 4.25 11.3197 4.25C10.9055 4.25 10.5697 4.58579 10.5697 5H12.0697ZM10.5697 19C10.5697 19.4142 10.9055 19.75 11.3197 19.75C11.734 19.75 12.0697 19.4142 12.0697 19H10.5697ZM12.0697 17.25C12.0697 16.8358 11.734 16.5 11.3197 16.5C10.9055 16.5 10.5697 16.8358 10.5697 17.25H12.0697ZM9.5016 19V17.25H8.0016V19H9.5016ZM8.7516 16.5H6.825V18H8.7516V16.5ZM8.0016 5V6.75H9.5016V5H8.0016ZM8.7516 6H6.825V7.5H8.7516V6ZM11.5333 11.25H8.7516V12.75H11.5333V11.25ZM12.0697 6.75V5H10.5697V6.75H12.0697ZM12.0697 19V17.25H10.5697V19H12.0697Z" fill="#000000"/>
</svg>